<?xml version="1.0" encoding="UTF-8" standalone="no"?>
<svg
   xmlns:dc="http://purl.org/dc/elements/1.1/"
   xmlns:cc="http://creativecommons.org/ns#"
   xmlns:rdf="http://www.w3.org/1999/02/22-rdf-syntax-ns#"
   xmlns:svg="http://www.w3.org/2000/svg"
   xmlns="http://www.w3.org/2000/svg"
   xmlns:sodipodi="http://sodipodi.sourceforge.net/DTD/sodipodi-0.dtd"
   xmlns:inkscape="http://www.inkscape.org/namespaces/inkscape"
   width="191.522"
   height="54.48"
   viewBox="0 0 191.522 54.48"
   version="1.1"
   id="svg2"
   inkscape:version="0.48.4 r9939"
   sodipodi:docname="pybossa_scifabric.svg">
  <metadata
     id="metadata17">
    <rdf:RDF>
      <cc:Work
         rdf:about="">
        <dc:format>image/svg+xml</dc:format>
        <dc:type
           rdf:resource="http://purl.org/dc/dcmitype/StillImage" />
      </cc:Work>
    </rdf:RDF>
  </metadata>
  <sodipodi:namedview
     pagecolor="#ffffff"
     bordercolor="#666666"
     borderopacity="1"
     objecttolerance="10"
     gridtolerance="10"
     guidetolerance="10"
     inkscape:pageopacity="0"
     inkscape:pageshadow="2"
     inkscape:window-width="1855"
     inkscape:window-height="1056"
     id="namedview15"
     showgrid="false"
     fit-margin-top="0"
     fit-margin-left="0"
     fit-margin-right="0"
     fit-margin-bottom="0"
     inkscape:zoom="1.5"
     inkscape:cx="4.427665"
     inkscape:cy="27.24"
     inkscape:window-x="1985"
     inkscape:window-y="24"
     inkscape:window-maximized="1"
     inkscape:current-layer="svg2" />
  <!-- Generator: Sketch 3.6.1 (26313) - http://www.bohemiancoding.com/sketch -->
  <title
     id="title4">pybossa-logo</title>
  <desc
     id="desc6">Created with Sketch.</desc>
  <defs
     id="defs8" />
  <path
     style="fill:#ffffff;fill-rule:evenodd;stroke:none"
     inkscape:connector-curvature="0"
     id="Fill-9"
     d="m 106.968,34.835 c -1.159,1.33 -2.947,1.994 -5.364,1.994 -2.417001,0 -4.209001,-0.664 -5.378001,-1.994 -1.17,-1.328 -1.754,-3.895 -1.754,-7.7 0,-3.806 0.584,-6.378 1.754,-7.717 1.169,-1.337 2.961,-2.007 5.378001,-2.007 2.417,0 4.205,0.67 5.364,2.007 1.158,1.339 1.738,3.911 1.738,7.717 0,3.805 -0.58,6.372 -1.738,7.7 l 0,0 z m -5.379,-23.478 c -4.664001,0 -8.246001,1.359 -10.742001,4.077 -2.498,2.716 -3.746,6.612 -3.746,11.686 0,5.074 1.248,8.969 3.746,11.688 2.496,2.716 6.078,4.074 10.742001,4.074 4.664,0 8.246,-1.358 10.743,-4.074 2.497,-2.719 3.745,-6.614 3.745,-11.688 0,-5.074 -1.248,-8.97 -3.745,-11.686 -2.497,-2.718 -6.079,-4.077 -10.743,-4.077 l 0,0 z m 82.561,20.376 c 0,3.098 -1.838,4.647 -5.514,4.647 l -0.061,0 c -3.855,0 -5.783,-1.639 -5.783,-4.916 0.02,-2.655 2.338,-3.984 6.953,-3.984 1.218,0.019 2.687,0.149 4.405,0.389 l 0,3.864 z m 3.895,-17.094 c -2.317,-2.227 -5.663,-3.341 -10.038,-3.341 -3.436,0 -6.562,0.569 -9.38,1.707 l 0,5.964 c 2.537,-1.037 5.524,-1.558 8.96,-1.558 4.335,0 6.503,1.928 6.503,5.782 -1.917,-0.278 -3.716,-0.419 -5.394,-0.419 -2.337,0 -4.365,0.266 -6.083,0.794 -1.719,0.531 -3.018,1.164 -3.895,1.904 -0.88,0.739 -1.574,1.597 -2.084,2.577 -0.509,0.978 -0.823,1.793 -0.943,2.442 -0.119,0.649 -0.18,1.283 -0.18,1.903 0,2.918 1.064,5.394 3.191,7.431 2.127,2.039 5.439,3.057 9.934,3.057 4.375,0 7.615,-1.014 9.725,-3.041 2.107,-2.026 3.161,-4.451 3.161,-7.268 l 0,-8.271 c 0,-4.214 -1.159,-7.435 -3.477,-9.663 l 0,0 z m -53.377,10.368 c -1.429,-0.629 -2.862,-1.128 -4.3,-1.498 -1.439,-0.369 -2.658,-0.799 -3.656,-1.288 -0.999,-0.49 -1.498,-1.163 -1.498,-2.023 0,-1.718 1.758,-2.577 5.274,-2.577 2.637,0 4.994,0.489 7.072,1.468 l 0,-5.604 c -2.537,-1.458 -5.324,-2.187 -8.361,-2.187 -3.236,0 -5.938,0.824 -8.106,2.472 -2.168,1.648 -3.251,4.01 -3.251,7.086 0,1.958 0.505,3.581 1.513,4.871 1.009,1.289 2.227,2.212 3.656,2.771 1.428,0.561 2.856,1.043 4.285,1.453 1.428,0.411 2.648,0.89 3.656,1.439 1.008,0.55 1.514,1.273 1.514,2.173 0,0.979 -0.32,1.711 -0.96,2.202 -0.639,0.49 -2.017,0.734 -4.135,0.734 -3.077,0 -5.964,-0.9 -8.66,-2.697 l 0,6.562 c 2.956,1.678 6.193,2.518 9.708,2.518 3.437,0 6.199,-0.848 8.286,-2.547 2.088,-1.697 3.132,-3.836 3.132,-6.412 0,-2.317 -0.505,-4.227 -1.515,-5.725 -1.007,-1.498 -2.226,-2.56 -3.654,-3.191 l 0,0 z m -58.081001,9.162 c -0.94,1.594 -2.578,2.391 -4.915,2.391 -3.676,0 -5.514,-1.104 -5.514,-3.307 l 0,-15.691 c 1.378,-0.339 2.966,-0.511 4.765,-0.511 2.297,0 4.051,0.686 5.259,2.059 1.208,1.372 1.813,3.783 1.813,7.229 0,3.627 -0.469,6.238 -1.408,7.83 l 0,0 z m -5.394,-22.871 c -1.599,0 -3.277,0.159 -5.035,0.478 l 0,-11.776 -7.372,0 0,32.56 c 0,2.841 1.054,5.271 3.161,7.291 2.109,2.021 5.35,3.031 9.725,3.031 1.015,0 2.024,-0.08 3.028,-0.24 1.004,-0.161 2.188,-0.58 3.55,-1.26 1.364,-0.682 2.531,-1.563 3.506,-2.643 0.976,-1.08 1.819,-2.666 2.536,-4.758 0.717,-2.091 1.074,-4.509 1.074,-7.251 0,-4.984 -1.223,-8.803 -3.669,-11.455 -2.448,-2.652 -5.949,-3.977 -10.504,-3.977 l 0,0 z M 158.338,25.007 c -1.429,-0.629 -2.862,-1.128 -4.301,-1.498 -1.438,-0.369 -2.656,-0.799 -3.655,-1.288 -1,-0.49 -1.499,-1.163 -1.499,-2.023 0,-1.718 1.758,-2.577 5.274,-2.577 2.637,0 4.994,0.489 7.073,1.468 l 0,-5.604 c -2.537,-1.458 -5.324,-2.187 -8.362,-2.187 -3.236,0 -5.938,0.824 -8.105,2.472 -2.168,1.648 -3.251,4.01 -3.251,7.086 0,1.958 0.504,3.581 1.513,4.871 1.009,1.289 2.227,2.212 3.656,2.771 1.428,0.561 2.855,1.043 4.285,1.453 1.428,0.411 2.647,0.89 3.655,1.439 1.009,0.55 1.513,1.273 1.513,2.173 0,0.979 -0.319,1.711 -0.958,2.202 -0.64,0.49 -2.019,0.734 -4.135,0.734 -3.077,0 -5.964,-0.9 -8.66,-2.697 l 0,6.562 c 2.956,1.678 6.191,2.518 9.708,2.518 3.436,0 6.199,-0.848 8.286,-2.547 2.087,-1.697 3.132,-3.836 3.132,-6.412 0,-2.317 -0.505,-4.227 -1.514,-5.725 -1.009,-1.498 -2.227,-2.56 -3.655,-3.191 l 0,0 z M 17.334999,35.226 c -1.248,1.388 -3.06,2.082 -5.437,2.082 -1.319999,0 -2.8279991,-0.118 -4.5259991,-0.36 l 0,-15.97 c 0,-2.199 1.838,-3.297 5.5139991,-3.297 2.338,0 3.975,0.799 4.914,2.397 0.939,1.598 1.408,4.195 1.408,7.791 0,3.517 -0.625,5.968 -1.873,7.357 l 0,0 z m 5.68,-19.733 c -0.981,-1.078 -2.154,-1.957 -3.522,-2.637 -1.369,-0.679 -2.557,-1.099 -3.566,-1.258 -1.009,-0.16 -2.022,-0.241 -3.041,-0.241 -4.3749991,0 -7.6159991,1.015 -9.7249991,3.041 C 1.054,16.427 0,18.85 0,21.665 l 0,32.094 7.3719999,0 0,-11.297 c 1.638,0.359 3.3159991,0.539 5.0339991,0.539 4.575,0 8.091,-1.338 10.548,-4.016 2.457,-2.675 3.686,-6.511 3.686,-11.505 0,-2.737 -0.36,-5.149 -1.078,-7.237 -0.719,-2.089 -1.57,-3.672 -2.547,-4.75 l 0,0 z m 18.874,17.651 -6.862,-21.368 -7.821,0 10.998,29.039 c -1.818,4.954 -3.787,7.432 -5.903,7.432 -1.14,0 -2.298,-0.252 -3.478,-0.75 l 0,6.143 c 1.58,0.558 3.127,0.84 4.645,0.84 2.059,0 4.046,-0.776 5.965,-2.323 1.918,-1.551 3.695,-4.551 5.334,-9.006 l 11.656,-31.375 -7.791,0 -6.743,21.368 z" />
</svg>
