<?xml version="1.0" encoding="UTF-8" standalone="no"?>
<svg width="279px" height="80px" viewBox="0 0 279 80" version="1.1" xmlns="http://www.w3.org/2000/svg" xmlns:xlink="http://www.w3.org/1999/xlink" xmlns:sketch="http://www.bohemiancoding.com/sketch/ns">
    <!-- Generator: Sketch 3.3.3 (12072) - http://www.bohemiancoding.com/sketch -->
    <title>logo_sf</title>
    <desc>Created with Sketch.</desc>
    <defs>
        <path id="path-1" d="M0.453940582,74.4850446 L263.252682,74.4850446 L263.252682,0.455357143 L0.453940582,0.455357143 L0.453940582,74.4850446 Z"></path>
    </defs>
    <g id="Page-1" stroke="none" stroke-width="1" fill="none" fill-rule="evenodd" sketch:type="MSPage">
        <g id="logo_sf" sketch:type="MSArtboardGroup">
            <g id="Imported-Layers" sketch:type="MSLayerGroup" transform="translate(7.743243, 2.500000)">
                <mask id="mask-2" sketch:name="Clip 2" fill="white">
                    <use xlink:href="#path-1"></use>
                </mask>
                <g id="Clip-2"></g>
                <path d="M131.668248,51.2799107 L131.668248,57.8986607 C131.668248,58.3741071 131.731948,58.6714286 131.863369,58.7946429 C131.995461,58.9171875 132.298535,58.9787946 132.775273,58.9787946 C134.073396,58.9787946 135.026872,58.5555804 135.635702,57.7131696 C136.132556,57.0160714 136.379977,56.1482143 136.379977,55.1075893 C136.379977,53.8915179 136.066845,52.9292411 135.435888,52.2274554 C134.827058,51.5491071 133.901073,51.2116071 132.662626,51.2116071 C132.307252,51.2116071 131.973334,51.2323661 131.668248,51.2799107 L131.668248,51.2799107 Z M128.726016,51.2799107 L128.726016,50.7267857 C129.029761,50.7087054 129.328812,50.6912946 129.628533,50.6765625 L130.244068,50.6484375 C130.288323,50.6484375 130.46668,50.6390625 130.778471,50.615625 C131.459047,50.56875 132.039715,50.5446429 132.519806,50.5446429 C134.177326,50.5446429 135.383588,50.7368304 136.132556,51.1145089 C137.024345,51.5658482 137.648597,52.2863839 138.005313,53.2747768 C138.187693,53.7870536 138.279554,54.3361607 138.279554,54.9220982 C138.279554,56.1622768 137.883949,57.2229911 137.09609,58.0995536 C136.230452,59.0645089 134.789509,59.5459821 132.775273,59.5459821 L128.726016,59.5459821 L128.726016,58.9941964 C129.131679,58.9941964 129.415979,58.9392857 129.577574,58.8321429 C129.798174,58.6915179 129.908139,58.4142857 129.908139,58.0024554 L129.908139,52.5247768 C129.908139,51.8805804 129.761296,51.4975446 129.472973,51.3770089 C129.305344,51.3127232 129.057252,51.2799107 128.726016,51.2799107 L128.726016,51.2799107 Z M125.600732,52.7825893 C125.54575,52.3473214 125.48071,52.0526786 125.402259,51.8959821 C125.269497,51.6368304 125.041521,51.5089286 124.723695,51.5089286 L121.930318,51.5089286 L121.930318,54.6997768 L123.995513,54.6997768 C124.340159,54.6997768 124.586239,54.6234375 124.732412,54.4720982 C124.879255,54.31875 124.952342,54.0535714 124.952342,53.6758929 L125.461935,53.6758929 L125.461935,56.4997768 L124.952342,56.4997768 C124.952342,55.9921875 124.817568,55.6821429 124.543996,55.5709821 C124.377708,55.5080357 124.129616,55.4745536 123.802404,55.4745536 L121.930318,55.4745536 L121.930318,58.0292411 C121.930318,58.2890625 121.953786,58.4645089 121.999381,58.5555804 C122.061739,58.6948661 122.195843,58.7638393 122.403703,58.7638393 L124.531256,58.7638393 C124.995255,58.7638393 125.335207,58.6479911 125.549773,58.4189732 C125.744894,58.2160714 125.893749,57.8470982 125.997679,57.3174107 L126.477099,57.3174107 L126.328915,59.5459821 L118.658861,59.5459821 L118.658861,58.9941964 L119.181195,58.9941964 C119.845007,58.9941964 120.176914,58.6526786 120.176914,57.9743304 L120.176914,52.3171875 C120.176914,51.8986607 120.083712,51.6154018 119.895967,51.4660714 C119.739065,51.3408482 119.461471,51.2799107 119.064524,51.2799107 L118.939138,51.2799107 L118.939138,50.7267857 L125.956107,50.7267857 L126.084846,52.7825893 L125.600732,52.7825893 L125.600732,52.7825893 Z M109.863679,51.2799107 L109.863679,57.8986607 C109.863679,58.3741071 109.927378,58.6714286 110.058799,58.7946429 C110.190221,58.9171875 110.493965,58.9787946 110.969362,58.9787946 C112.268826,58.9787946 113.220961,58.5555804 113.831803,57.7131696 C114.327986,57.0160714 114.576078,56.1482143 114.576078,55.1075893 C114.576078,53.8915179 114.262276,52.9292411 113.631318,52.2274554 C113.022488,51.5491071 112.096503,51.2116071 110.857386,51.2116071 C110.502012,51.2116071 110.170105,51.2323661 109.863679,51.2799107 L109.863679,51.2799107 Z M106.921446,51.2799107 L106.921446,50.7267857 C107.225191,50.7087054 107.524242,50.6912946 107.823293,50.6765625 L108.440169,50.6484375 C108.483753,50.6484375 108.662781,50.6390625 108.974572,50.615625 C109.653136,50.56875 110.235145,50.5446429 110.714566,50.5446429 C112.372756,50.5446429 113.579018,50.7368304 114.327986,51.1145089 C115.219775,51.5658482 115.843357,52.2863839 116.200072,53.2747768 C116.382453,53.7870536 116.474314,54.3361607 116.474314,54.9220982 C116.474314,56.1622768 116.079379,57.2229911 115.291521,58.0995536 C114.425882,59.0645089 112.984269,59.5459821 110.969362,59.5459821 L106.921446,59.5459821 L106.921446,58.9941964 C107.326439,58.9941964 107.610739,58.9392857 107.772333,58.8321429 C107.993604,58.6915179 108.103569,58.4142857 108.103569,58.0024554 L108.103569,52.5247768 C108.103569,51.8805804 107.957396,51.4975446 107.668403,51.3770089 C107.500774,51.3127232 107.252012,51.2799107 106.921446,51.2799107 L106.921446,51.2799107 Z M96.879771,52.4845982 L96.879771,57.8424107 C96.879771,58.4209821 97.0440479,58.7685268 97.3699195,58.8890625 C97.5516299,58.9580357 97.8097792,58.9941964 98.1430266,58.9941964 L98.1430266,59.5459821 L95.0586445,59.5459821 L95.0586445,58.9941964 L95.1324015,58.9941964 C95.4636373,58.9941964 95.7003301,58.9339286 95.8411388,58.8180804 C96.0154735,58.6861607 96.1026408,58.4450893 96.1026408,58.0995536 L96.1026408,51.5912946 C95.8330926,51.3837054 95.4938106,51.2799107 95.0814421,51.2799107 L95.0814421,50.7267857 L97.70719,50.7267857 L102.907056,56.7689732 L102.907056,52.4845982 C102.907056,51.8424107 102.760213,51.4707589 102.470549,51.3696429 C102.301578,51.3100446 102.042758,51.2799107 101.694089,51.2799107 L101.568032,51.2799107 L101.568032,50.7267857 L104.852899,50.7267857 L104.852899,51.2799107 L104.728182,51.2799107 C104.396947,51.2799107 104.160924,51.3127232 104.018774,51.3770089 C103.796163,51.4828125 103.683516,51.6904018 103.683516,52.0004464 L103.683516,59.5888393 L102.980813,59.5888393 L96.879771,52.4845982 L96.879771,52.4845982 Z M89.8420157,51.2799107 L89.8420157,50.7267857 L93.1456571,50.7267857 L93.1456571,51.2799107 L93.0517846,51.2799107 C92.6400867,51.2799107 92.3477409,51.3602679 92.1687126,51.5229911 C91.977615,51.703125 91.8824015,52.0145089 91.8824015,52.4564732 L91.8824015,55.9868304 C91.8824015,57.2417411 91.5659171,58.190625 90.9302661,58.8254464 C90.3221065,59.4395089 89.4457396,59.7475446 88.3045183,59.7475446 C87.224314,59.7475446 86.3566639,59.5058036 85.7062616,59.0263393 C84.9385187,58.4645089 84.555653,57.6127232 84.555653,56.4716518 L84.555653,52.2421875 C84.555653,51.8678571 84.4919538,51.6154018 84.3625438,51.4801339 C84.2331339,51.3455357 84.0011347,51.2799107 83.6658758,51.2799107 L83.4479575,51.2799107 L83.4479575,50.7267857 L87.4348566,50.7267857 L87.4348566,51.2799107 L87.2182793,51.2799107 C86.6154838,51.2799107 86.3157623,51.6020089 86.3157623,52.2421875 L86.3157623,56.4716518 C86.3157623,57.5256696 86.7046627,58.2227679 87.4791108,58.5629464 C87.8224159,58.7176339 88.2052816,58.7919643 88.6236848,58.7919643 C89.3900867,58.7919643 89.9928822,58.5756696 90.4320714,58.1397321 C90.888694,57.684375 91.1180111,57.0341518 91.1180111,56.1877232 L91.1180111,52.7397321 C91.1180111,52.0667411 90.9765319,51.6301339 90.6935733,51.4305804 C90.5400248,51.3294643 90.3321642,51.2799107 90.0713328,51.2799107 L89.8420157,51.2799107 L89.8420157,51.2799107 Z M77.4696204,51.5089286 L77.4696204,54.6997768 L79.2424696,54.6997768 C79.8057046,54.6997768 80.1443161,54.5645089 80.254281,54.290625 C80.3186507,54.1446429 80.3481535,53.9337054 80.3481535,53.6618304 L80.8597586,53.6618304 L80.8597586,56.4863839 L80.3481535,56.4863839 C80.3481535,55.8120536 80.0571488,55.4745536 79.4717867,55.4745536 L77.4696204,55.4745536 L77.4696204,57.759375 C77.4696204,58.3975446 77.5748917,58.7752232 77.7861048,58.8964286 C77.9027749,58.9600446 78.0804621,58.9941964 78.3218486,58.9941964 L78.5625645,58.9941964 L78.5625645,59.5459821 L74.7587167,59.5459821 L74.7587167,58.9941964 L74.9625542,58.9941964 C75.236796,58.9941964 75.4299051,58.9319196 75.5418816,58.8133929 C75.652517,58.6928571 75.7101816,58.4825893 75.7101816,58.1825893 L75.7101816,52.4424107 C75.7101816,52.0506696 75.6659274,51.7720982 75.5780895,51.6060268 C75.4594079,51.3796875 75.238137,51.2665179 74.9203115,51.2665179 L74.7587167,51.2665179 L74.7587167,50.7267857 L81.1889829,50.7267857 L81.1889829,52.7256696 L80.7290076,52.7256696 C80.70621,52.3125 80.6579327,52.0238839 80.5794822,51.8678571 C80.462812,51.6267857 80.2442232,51.5089286 79.9257273,51.5089286 L77.4696204,51.5089286 L77.4696204,51.5089286 Z" id="Fill-1" fill="#FFFFFF" sketch:type="MSShapeGroup" mask="url(#mask-2)"></path>
                <path d="M250.701259,36.3234375 C250.632866,36.3234375 250.565143,36.3013393 250.565143,36.1875 L250.565143,35.7790179 C250.565143,32.8560268 250.565143,32.1522321 250.609398,31.5401786 C250.655663,30.8598214 250.813906,30.5879464 251.359037,30.4975446 C251.586342,30.4513393 251.767382,30.4292411 251.926965,30.4292411 C252.177068,30.4292411 252.289715,30.3616071 252.289715,30.225 C252.289715,30.0890625 252.1536,30.0441964 251.880029,30.0441964 C251.086136,30.0441964 249.701516,30.0890625 249.224778,30.0890625 C248.680318,30.0890625 247.364091,30.0441964 246.297297,30.0441964 C246.025067,30.0441964 245.866154,30.0890625 245.866154,30.225 C245.866154,30.3616071 246.002269,30.4292411 246.206777,30.4292411 C246.501135,30.4292411 246.842428,30.4513393 247.001341,30.4975446 C247.636992,30.6783482 247.818702,30.8825893 247.863627,31.5401786 C247.886425,32.1522321 247.886425,32.6959821 247.886425,35.6203125 L247.886425,39.0207589 C247.886425,40.7886161 247.886425,42.3073661 247.795234,43.1236607 C247.727512,43.6901786 247.614194,44.053125 247.205178,44.1435268 C247.023468,44.1897321 246.797504,44.2125 246.501135,44.2125 C246.251702,44.2125 246.18465,44.325 246.18465,44.4154018 C246.18465,44.5513393 246.319424,44.6236607 246.570198,44.6236607 C247.364091,44.6236607 248.680318,44.5560268 249.134258,44.5560268 C249.701516,44.5560268 251.086136,44.6236607 252.380235,44.6236607 C252.631009,44.6236607 252.789251,44.5513393 252.789251,44.4154018 C252.789251,44.325 252.698731,44.2125 252.471426,44.2125 C252.177068,44.2125 251.722457,44.1897321 251.449556,44.1435268 C250.859501,44.053125 250.746183,43.6901786 250.67779,43.1464286 C250.58727,42.3073661 250.565143,40.8341518 250.565143,39.065625 L250.565143,37.5930804 C250.565143,37.5020089 250.632866,37.4792411 250.701259,37.4792411 L258.236538,37.4792411 C258.282133,37.4792411 258.349856,37.5241071 258.349856,37.5930804 L258.349856,39.065625 C258.349856,40.8341518 258.349856,42.3073661 258.258665,43.1236607 C258.190272,43.6901786 258.077625,44.053125 257.66928,44.1435268 C257.48824,44.1897321 257.260264,44.2125 256.943109,44.2125 C256.716474,44.2125 256.625284,44.325 256.625284,44.4154018 C256.625284,44.5513393 256.784196,44.6236607 257.056427,44.6236607 C257.828193,44.6236607 259.23561,44.5560268 259.68955,44.5560268 C260.23334,44.5560268 261.550237,44.6236607 262.844337,44.6236607 C263.09444,44.6236607 263.252682,44.5513393 263.252682,44.4154018 C263.252682,44.325 263.138694,44.2125 262.935527,44.2125 C262.617031,44.2125 262.186559,44.1897321 261.913658,44.1435268 C261.300805,44.053125 261.187487,43.6901786 261.119765,43.1464286 C261.028574,42.3073661 261.028574,40.7886161 261.028574,39.0207589 L261.028574,35.6203125 C261.028574,32.6959821 261.028574,32.1522321 261.073499,31.5401786 C261.119765,30.8598214 261.278007,30.5879464 261.79967,30.4975446 C262.049103,30.4513393 262.231483,30.4292411 262.390396,30.4292411 C262.617031,30.4292411 262.753146,30.3616071 262.753146,30.225 C262.753146,30.0890625 262.617031,30.0441964 262.322674,30.0441964 C261.550237,30.0441964 260.23334,30.0890625 259.757273,30.0890625 C259.23561,30.0890625 257.828193,30.0441964 256.761399,30.0441964 C256.466371,30.0441964 256.330256,30.0890625 256.330256,30.225 C256.330256,30.3616071 256.442903,30.4292411 256.670208,30.4292411 C256.943109,30.4292411 257.283732,30.4513393 257.441974,30.4975446 C258.077625,30.6783482 258.258665,30.8825893 258.30426,31.5401786 C258.327058,32.1522321 258.349856,32.8560268 258.349856,35.7790179 L258.349856,36.1875 C258.349856,36.3013393 258.282133,36.3234375 258.236538,36.3234375 L250.701259,36.3234375 L250.701259,36.3234375 Z M236.173819,39.0207589 C236.173819,40.7886161 236.173819,42.3073661 236.083969,43.1236607 C236.015577,43.6901786 235.902259,44.053125 235.493243,44.1435268 C235.334331,44.1897321 235.084227,44.2125 234.7892,44.2125 C234.539767,44.2125 234.471374,44.325 234.471374,44.4154018 C234.471374,44.5513393 234.60883,44.6236607 234.858263,44.6236607 C235.652156,44.6236607 237.013978,44.5560268 237.467918,44.5560268 C238.035176,44.5560268 239.374201,44.6236607 240.691098,44.6236607 C240.917733,44.6236607 241.076645,44.5513393 241.076645,44.4154018 C241.076645,44.325 240.986796,44.2125 240.75949,44.2125 C240.463792,44.2125 240.009851,44.1897321 239.738292,44.1435268 C239.148236,44.053125 239.033577,43.6901786 238.966526,43.1464286 C238.875335,42.3073661 238.852538,40.7886161 238.852538,39.0207589 L238.852538,31.2227679 L241.371673,31.2676339 C243.165308,31.2917411 243.687642,31.8803571 243.732567,32.3779018 L243.755364,32.5828125 C243.777491,32.8774554 243.823757,32.9685268 243.981999,32.9685268 C244.095987,32.9685268 244.140241,32.8560268 244.16438,32.6511161 C244.16438,32.1522321 244.209305,30.7238839 244.209305,30.3167411 C244.209305,30.0214286 244.187178,29.9082589 244.050392,29.9082589 C243.981999,29.9082589 243.823757,29.953125 243.505261,29.9986607 C243.210904,30.0441964 242.77909,30.0890625 242.14411,30.0890625 L234.040902,30.0890625 C233.381783,30.0890625 232.633485,30.0662946 232.042758,29.9986607 C231.543893,29.9310268 231.339385,29.7723214 231.180472,29.7723214 C231.067155,29.7723214 230.998762,29.8848214 230.953167,30.1345982 C230.908242,30.2933036 230.522694,32.1522321 230.522694,32.4696429 C230.522694,32.6732143 230.567619,32.7877232 230.704405,32.7877232 C230.839849,32.7877232 230.885445,32.6959821 230.93104,32.5379464 C230.976635,32.4020089 231.067155,32.1522321 231.271663,31.8803571 C231.56535,31.4491071 232.042758,31.3138393 233.201413,31.2917411 L236.173819,31.2227679 L236.173819,39.0207589 L236.173819,39.0207589 Z M221.352692,31.3814732 C221.352692,31.2227679 221.398288,31.1551339 221.534403,31.1089286 C221.73824,31.0647321 222.215649,31.0412946 222.714514,31.0412946 C223.894626,31.0412946 225.755983,31.7444196 225.755983,34.4645089 C225.755983,36.0515625 225.075407,36.8899554 224.462554,37.3205357 C224.121261,37.5709821 223.849701,37.6379464 223.055137,37.6379464 C222.555601,37.6379464 221.965546,37.5930804 221.534403,37.4571429 C221.398288,37.3888393 221.352692,37.3205357 221.352692,37.1162946 L221.352692,31.3814732 L221.352692,31.3814732 Z M218.810759,39.0207589 C218.810759,40.7886161 218.810759,42.3073661 218.719569,43.1236607 C218.651176,43.6901786 218.537858,44.053125 218.129513,44.1435268 C217.947803,44.1897321 217.721168,44.2125 217.42614,44.2125 C217.176037,44.2125 217.108314,44.325 217.108314,44.4154018 C217.108314,44.5513393 217.24443,44.6236607 217.493862,44.6236607 C218.288426,44.6236607 219.559057,44.5560268 219.944605,44.5560268 C220.240303,44.5560268 221.897823,44.6236607 223.055137,44.6236607 C223.30457,44.6236607 223.463483,44.5513393 223.463483,44.4154018 C223.463483,44.325 223.372963,44.2125 223.213379,44.2125 C222.963276,44.2125 222.532804,44.1897321 222.237105,44.1435268 C221.624923,44.053125 221.534403,43.6901786 221.46601,43.1236607 C221.37549,42.3073661 221.352692,40.8113839 221.352692,39.0207589 L221.352692,38.7482143 C221.352692,38.6350446 221.420415,38.5901786 221.510935,38.5901786 L223.30457,38.6350446 C223.441355,38.6350446 223.554002,38.6578125 223.66732,38.7716518 C223.917423,39.065625 224.757582,40.3587054 225.551475,41.4013393 C226.663194,42.8966518 227.412833,43.8040179 228.275789,44.2345982 C228.798123,44.5064732 229.341913,44.6236607 230.454972,44.6236607 L232.361254,44.6236607 C232.610687,44.6236607 232.746802,44.5787946 232.746802,44.4154018 C232.746802,44.325 232.655612,44.2125 232.49737,44.2125 C232.338457,44.2125 232.225139,44.2125 232.019961,44.1662946 C231.702806,44.0986607 230.999433,44.0075893 229.887044,42.8966518 C228.684135,41.6953125 227.277388,39.9495536 225.505209,37.7745536 C227.457757,36.2095982 228.275789,34.940625 228.275789,33.5122768 C228.275789,32.2205357 227.43563,31.2455357 226.868372,30.8598214 C225.801578,30.1573661 224.348566,30.0441964 223.077264,30.0441964 C222.465081,30.0441964 220.648649,30.0890625 219.968073,30.0890625 C219.559057,30.0890625 218.288426,30.0441964 217.24443,30.0441964 C216.948731,30.0441964 216.789818,30.0890625 216.789818,30.225 C216.789818,30.3616071 216.926604,30.4292411 217.130442,30.4292411 C217.42614,30.4292411 217.766092,30.4513393 217.925005,30.4975446 C218.560656,30.6783482 218.741696,30.8825893 218.787291,31.5401786 C218.810759,32.1522321 218.810759,32.6959821 218.810759,35.6203125 L218.810759,39.0207589 L218.810759,39.0207589 Z M207.529967,43.8267857 C203.761657,43.8267857 201.491954,40.6982143 201.491954,36.7319196 C201.491954,31.9714286 204.101609,30.7921875 206.327058,30.7921875 C209.549567,30.7921875 212.114298,33.421875 212.114298,37.6828125 C212.114298,43.1691964 208.936713,43.8267857 207.529967,43.8267857 L207.529967,43.8267857 Z M206.712606,44.8727679 C211.865535,44.8727679 215.088044,41.4013393 215.088044,36.9803571 C215.088044,32.5600446 211.954714,29.7723214 206.916443,29.7723214 C200.856303,29.7723214 198.541675,34.0332589 198.541675,37.3205357 C198.541675,40.74375 200.901228,44.8727679 206.712606,44.8727679 L206.712606,44.8727679 Z M181.426707,44.1662946 C181.608418,44.6691964 181.722406,44.8727679 181.971838,44.8727679 C182.266866,44.8727679 182.380854,44.6457589 182.743604,43.8488839 C183.560295,42.0803571 186.239014,35.2573661 186.579637,34.4417411 L186.625232,34.4417411 L190.6879,43.9399554 C190.982928,44.6457589 191.119043,44.8727679 191.390602,44.8727679 C191.686301,44.8727679 191.799618,44.6457589 192.026924,43.9620536 C193.003198,41.0845982 195.045595,34.9633929 195.975603,32.5379464 C196.38529,31.4263393 196.612595,30.7011161 197.088663,30.5203125 C197.315298,30.4513393 197.587528,30.4292411 197.791366,30.4292411 C197.973747,30.4292411 198.064267,30.3388393 198.064267,30.2029018 C198.064267,30.0890625 197.927481,30.0441964 197.701516,30.0441964 C197.043068,30.0441964 196.180111,30.0890625 196.044667,30.0890625 C195.862286,30.0890625 194.955075,30.0441964 193.911079,30.0441964 C193.592583,30.0441964 193.434341,30.0890625 193.434341,30.225 C193.434341,30.3388393 193.592583,30.4292411 193.774293,30.4292411 C194.569528,30.4292411 194.750567,30.6555804 194.750567,30.9736607 C194.750567,31.2455357 194.682845,31.6305804 194.546059,32.0839286 C193.842686,34.3285714 192.321952,39.4051339 191.936404,40.5174107 L191.867341,40.5174107 L187.873066,30.9964286 C187.623633,30.3837054 187.441923,30.0890625 187.215288,30.0890625 C187.033577,30.0890625 186.82974,30.2484375 186.625232,30.7921875 L182.811327,40.6446429 L182.743604,40.6446429 C182.448576,39.7607143 180.632814,33.9241071 180.291521,32.6551339 C180.042758,31.7698661 179.860378,31.1316964 179.860378,30.8825893 C179.860378,30.6783482 179.883175,30.5665179 180.065556,30.4975446 C180.223798,30.4513393 180.405509,30.4292411 180.564421,30.4292411 C180.768929,30.4292411 180.927842,30.3616071 180.927842,30.225 C180.927842,30.0890625 180.791056,30.0441964 180.496699,30.0441964 C179.339385,30.0441964 178.362441,30.0890625 178.18006,30.0890625 C177.999691,30.0890625 176.887301,30.0441964 175.865432,30.0441964 C175.567052,30.0441964 175.408139,30.0890625 175.408139,30.225 C175.408139,30.3616071 175.521457,30.4292411 175.726635,30.4292411 C175.911698,30.4292411 176.297246,30.4513393 176.501083,30.5879464 C176.796782,30.7700893 176.955694,31.2227679 177.205127,31.9252232 L181.426707,44.1662946 L181.426707,44.1662946 Z M165.968589,39.0207589 C165.968589,40.7886161 165.968589,42.3073661 165.878739,43.1236607 C165.810347,43.6901786 165.6977,44.053125 165.288684,44.1435268 C165.106973,44.1897321 164.879668,44.2125 164.58464,44.2125 C164.335207,44.2125 164.266815,44.325 164.266815,44.4154018 C164.266815,44.5513393 164.40293,44.6236607 164.652362,44.6236607 C165.062049,44.6236607 165.560914,44.6008929 166.037652,44.5787946 C166.51372,44.5787946 166.944863,44.5513393 167.172839,44.5513393 C167.762224,44.5513393 168.511192,44.5787946 169.487466,44.6008929 C170.46374,44.6457589 171.666649,44.6691964 173.165257,44.6691964 C173.913555,44.6691964 174.095265,44.6691964 174.23138,44.1662946 C174.344698,43.7805804 174.504281,42.4660714 174.504281,42.0354911 C174.504281,41.83125 174.481483,41.5821429 174.3219,41.5821429 C174.186456,41.5821429 174.14086,41.6725446 174.095265,41.8767857 C173.958479,42.6703125 173.732515,43.078125 173.232309,43.3044643 C172.710646,43.5308036 171.870487,43.5542411 171.348824,43.5542411 C169.305756,43.5542411 168.693573,43.2595982 168.647978,41.9450893 C168.625181,41.3779018 168.647978,39.7466518 168.647978,39.0883929 L168.647978,37.5475446 C168.647978,37.4337054 168.670105,37.3433036 168.761296,37.3433036 C169.260831,37.3433036 171.529864,37.3888393 171.893955,37.4337054 C172.642923,37.5020089 172.892356,37.7966518 173.005674,38.1823661 C173.051269,38.4308036 173.051269,38.6805804 173.073396,38.8848214 C173.073396,38.9752232 173.118991,39.0435268 173.255106,39.0435268 C173.437487,39.0435268 173.459614,38.7716518 173.459614,38.6129464 C173.459614,38.4770089 173.50588,37.7055804 173.550805,37.3205357 C173.664122,36.3462054 173.709047,36.028125 173.709047,35.915625 C173.709047,35.8017857 173.641325,35.7113839 173.550805,35.7113839 C173.459614,35.7113839 173.391892,35.8238839 173.232309,35.9604911 C173.051269,36.1647321 172.756241,36.2095982 172.279503,36.2544643 C171.825562,36.3013393 169.237363,36.3013393 168.783423,36.3013393 C168.670105,36.3013393 168.647978,36.2095982 168.647978,36.0964286 L168.647978,31.3366071 C168.647978,31.2227679 168.693573,31.1551339 168.783423,31.1551339 C169.192439,31.1551339 171.57613,31.2 171.916082,31.2455357 C172.915154,31.3366071 173.073396,31.6078125 173.232309,31.9479911 C173.345626,32.1743304 173.369094,32.5151786 173.369094,32.6511161 C173.369094,32.8098214 173.391892,32.9002232 173.528007,32.9002232 C173.68692,32.9002232 173.732515,32.6732143 173.754642,32.5828125 C173.800237,32.3558036 173.845832,31.5180804 173.86863,31.3138393 C173.913555,30.4292411 174.026872,30.2029018 174.026872,30.0662946 C174.026872,29.9758929 174.004745,29.8848214 173.891428,29.8848214 C173.800237,29.8848214 173.68692,29.953125 173.572932,29.9758929 C173.414689,29.9986607 173.096864,30.0662946 172.734114,30.0890625 C172.347896,30.1125 167.921137,30.0890625 167.286156,30.0890625 C166.718228,30.0890625 165.447596,30.0441964 164.40293,30.0441964 C164.107902,30.0441964 163.948989,30.0890625 163.948989,30.225 C163.948989,30.3616071 164.085775,30.4292411 164.290283,30.4292411 C164.58464,30.4292411 164.925263,30.4513393 165.084176,30.4975446 C165.719156,30.6783482 165.901537,30.8825893 165.947132,31.5401786 C165.968589,32.1522321 165.968589,32.6959821 165.968589,35.6203125 L165.968589,39.0207589 L165.968589,39.0207589 Z M156.118682,35.6203125 C156.118682,32.6959821 156.118682,32.1522321 156.163606,31.5401786 C156.209202,30.8598214 156.368114,30.5879464 156.912575,30.4975446 C157.13988,30.4513393 157.457706,30.4292411 157.684341,30.4292411 C157.933773,30.4292411 158.047762,30.3616071 158.047762,30.225 C158.047762,30.0890625 157.911646,30.0441964 157.615948,30.0441964 C156.844852,30.0441964 155.2108,30.0890625 154.734062,30.0890625 C154.189602,30.0890625 152.9183,30.0441964 151.986951,30.0441964 C151.691923,30.0441964 151.555808,30.0890625 151.555808,30.225 C151.555808,30.3616071 151.669796,30.4292411 151.897101,30.4292411 C152.146534,30.4292411 152.395967,30.4513393 152.554879,30.4975446 C153.19053,30.6783482 153.372241,30.8825893 153.417165,31.5401786 C153.440633,32.1522321 153.440633,32.6959821 153.440633,35.6203125 L153.440633,39.0207589 C153.440633,40.7886161 153.440633,42.3073661 153.349443,43.1236607 C153.28105,43.6901786 153.167733,44.053125 152.759387,44.1435268 C152.577006,44.1897321 152.351042,44.2125 152.055344,44.2125 C151.80524,44.2125 151.737518,44.325 151.737518,44.4154018 C151.737518,44.5513393 151.873633,44.6236607 152.123736,44.6236607 C152.531411,44.6236607 153.030947,44.6008929 153.507685,44.5787946 C153.984423,44.5787946 154.415566,44.5513393 154.643542,44.5513393 C155.460233,44.5513393 156.299721,44.5787946 157.298793,44.6008929 C158.297865,44.6457589 159.454508,44.6691964 160.884052,44.6691964 C161.929389,44.6691964 162.019909,44.5787946 162.156024,44.1435268 C162.314937,43.5770089 162.451723,42.1486607 162.451723,41.9223214 C162.451723,41.6953125 162.405457,41.4917411 162.269342,41.4917411 C162.1111,41.4917411 162.065504,41.6049107 162.042707,41.7863839 C161.997782,42.1486607 161.793274,42.6930804 161.543842,42.9428571 C161.044306,43.4638393 160.27254,43.4866071 159.205075,43.4866071 C157.662214,43.4866071 156.889777,43.3741071 156.549825,43.078125 C156.118682,42.7158482 156.118682,41.4917411 156.118682,39.0207589 L156.118682,35.6203125 L156.118682,35.6203125 Z M141.728698,39.0207589 C141.728698,40.7886161 141.728698,42.3073661 141.636837,43.1236607 C141.569115,43.6901786 141.455127,44.053125 141.047452,44.1435268 C140.887869,44.1897321 140.637766,44.2125 140.344079,44.2125 C140.094646,44.2125 140.025583,44.325 140.025583,44.4154018 C140.025583,44.5513393 140.161027,44.6236607 140.411131,44.6236607 C141.205694,44.6236607 142.567516,44.5560268 143.022127,44.5560268 C143.590056,44.5560268 144.928409,44.6236607 146.243965,44.6236607 C146.471941,44.6236607 146.630854,44.5513393 146.630854,44.4154018 C146.630854,44.325 146.540334,44.2125 146.313029,44.2125 C146.01733,44.2125 145.56339,44.1897321 145.29183,44.1435268 C144.701774,44.053125 144.588457,43.6901786 144.519393,43.1464286 C144.428874,42.3073661 144.406746,40.7886161 144.406746,39.0207589 L144.406746,31.2227679 L146.925882,31.2676339 C148.718847,31.2917411 149.24118,31.8803571 149.286775,32.3779018 L149.308902,32.5828125 C149.3317,32.8774554 149.377295,32.9685268 149.536208,32.9685268 C149.649525,32.9685268 149.695121,32.8560268 149.717918,32.6511161 C149.717918,32.1522321 149.762843,30.7238839 149.762843,30.3167411 C149.762843,30.0214286 149.740716,29.9082589 149.604601,29.9082589 C149.536208,29.9082589 149.377295,29.953125 149.05947,29.9986607 C148.764442,30.0441964 148.333969,30.0890625 147.697648,30.0890625 L139.59444,30.0890625 C138.935991,30.0890625 138.187693,30.0662946 137.596967,29.9986607 C137.098102,29.9310268 136.893594,29.7723214 136.734681,29.7723214 C136.620693,29.7723214 136.552971,29.8848214 136.507376,30.1345982 C136.46178,30.2933036 136.074892,32.1522321 136.074892,32.4696429 C136.074892,32.6732143 136.122498,32.7877232 136.257943,32.7877232 C136.394729,32.7877232 136.438983,32.6959821 136.484578,32.5379464 C136.529503,32.4020089 136.620693,32.1522321 136.825872,31.8803571 C137.120229,31.4491071 137.596967,31.3138393 138.754281,31.2917411 L141.728698,31.2227679 L141.728698,39.0207589 L141.728698,39.0207589 Z M127.359501,39.0207589 C127.359501,40.7886161 127.359501,42.3073661 127.269651,43.1236607 C127.200588,43.6901786 127.08727,44.053125 126.680266,44.1435268 C126.520012,44.1897321 126.269909,44.2125 125.976222,44.2125 C125.726119,44.2125 125.658397,44.325 125.658397,44.4154018 C125.658397,44.5513393 125.793171,44.6236607 126.043945,44.6236607 C126.838508,44.6236607 128.198989,44.5560268 128.6536,44.5560268 C129.221529,44.5560268 130.561223,44.6236607 131.876779,44.6236607 C132.104756,44.6236607 132.262998,44.5513393 132.262998,44.4154018 C132.262998,44.325 132.173148,44.2125 131.944502,44.2125 C131.650144,44.2125 131.196204,44.1897321 130.923974,44.1435268 C130.333918,44.053125 130.2206,43.6901786 130.151537,43.1464286 C130.061688,42.3073661 130.039561,40.7886161 130.039561,39.0207589 L130.039561,31.2227679 L132.557355,31.2676339 C134.351661,31.2917411 134.873324,31.8803571 134.918919,32.3779018 L134.941046,32.5828125 C134.964514,32.8774554 135.009439,32.9685268 135.169022,32.9685268 C135.28234,32.9685268 135.327264,32.8560268 135.349391,32.6511161 C135.349391,32.1522321 135.394987,30.7238839 135.394987,30.3167411 C135.394987,30.0214286 135.37353,29.9082589 135.236744,29.9082589 C135.169022,29.9082589 135.009439,29.953125 134.692284,29.9986607 C134.395915,30.0441964 133.965443,30.0890625 133.330462,30.0890625 L125.226583,30.0890625 C124.568805,30.0890625 123.819837,30.0662946 123.229111,29.9986607 C122.730246,29.9310268 122.525738,29.7723214 122.366825,29.7723214 C122.253507,29.7723214 122.185115,29.8848214 122.139519,30.1345982 C122.093924,30.2933036 121.709047,32.1522321 121.709047,32.4696429 C121.709047,32.6732143 121.753972,32.7877232 121.889416,32.7877232 C122.026872,32.7877232 122.071797,32.6959821 122.116722,32.5379464 C122.161646,32.4020089 122.253507,32.1522321 122.458015,31.8803571 C122.752373,31.4491071 123.229111,31.3138393 124.386425,31.2917411 L127.359501,31.2227679 L127.359501,39.0207589 L127.359501,39.0207589 Z M106.591551,38.4542411 C106.591551,41.2419643 107.385445,42.6703125 108.407984,43.5542411 C109.860326,44.8279018 111.926191,44.8727679 112.969517,44.8727679 C114.263617,44.8727679 115.783681,44.6691964 117.190427,43.4866071 C118.870745,42.1037946 119.09805,39.8370536 119.09805,37.6828125 L119.09805,35.6203125 C119.09805,32.6959821 119.120848,32.1522321 119.143646,31.5401786 C119.18857,30.8598214 119.324685,30.5879464 119.870487,30.4975446 C120.119249,30.4513393 120.233237,30.4292411 120.459202,30.4292411 C120.687178,30.4292411 120.799825,30.3616071 120.799825,30.225 C120.799825,30.0890625 120.66438,30.0441964 120.39215,30.0441964 C119.619713,30.0441964 118.280019,30.0890625 118.054054,30.0890625 C118.031256,30.0890625 116.691562,30.0441964 115.671034,30.0441964 C115.397462,30.0441964 115.261347,30.0890625 115.261347,30.225 C115.261347,30.3616071 115.375335,30.4292411 115.60197,30.4292411 C115.829276,30.4292411 116.169899,30.4513393 116.328812,30.4975446 C116.964463,30.6783482 117.123375,30.8825893 117.1683,31.5401786 C117.190427,32.1522321 117.213895,32.6959821 117.213895,35.6203125 L117.213895,38.0457589 C117.213895,40.0185268 117.1683,41.6953125 116.056581,42.7386161 C115.261347,43.509375 114.240149,43.7584821 113.378533,43.7584821 C112.697287,43.7584821 111.743811,43.6901786 110.858057,42.9877232 C109.883124,42.2169643 109.337993,41.1287946 109.337993,38.3183036 L109.337993,35.6203125 C109.337993,32.6959821 109.337993,32.1522321 109.383588,31.5401786 C109.428512,30.8598214 109.586755,30.5879464 110.109759,30.4975446 C110.359191,30.4513393 110.472509,30.4292411 110.699814,30.4292411 C110.904322,30.4292411 111.016969,30.3616071 111.016969,30.225 C111.016969,30.0890625 110.880854,30.0441964 110.586497,30.0441964 C109.860326,30.0441964 108.520631,30.0890625 108.021766,30.0890625 C107.43171,30.0890625 106.092016,30.0441964 105.025222,30.0441964 C104.729523,30.0441964 104.593408,30.0890625 104.593408,30.225 C104.593408,30.3616071 104.707396,30.4292411 104.934702,30.4292411 C105.206262,30.4292411 105.546885,30.4513393 105.706468,30.4975446 C106.341448,30.6783482 106.523829,30.8598214 106.569424,31.5401786 C106.614349,32.1522321 106.591551,32.6959821 106.591551,35.6203125 L106.591551,38.4542411 L106.591551,38.4542411 Z M90.5903136,36.3234375 C90.5212503,36.3234375 90.4521869,36.3013393 90.4521869,36.1875 L90.4521869,35.7790179 C90.4521869,32.8560268 90.4521869,32.1522321 90.4984527,31.5401786 C90.5440479,30.8598214 90.7029606,30.5879464 91.2474211,30.4975446 C91.4747266,30.4513393 91.6557665,30.4292411 91.8153497,30.4292411 C92.0654529,30.4292411 92.1780999,30.3616071 92.1780999,30.225 C92.1780999,30.0890625 92.0419847,30.0441964 91.7697545,30.0441964 C90.9751908,30.0441964 89.5905715,30.0890625 89.1138333,30.0890625 C88.5693728,30.0890625 87.2524758,30.0441964 86.1856819,30.0441964 C85.9134516,30.0441964 85.7552094,30.0890625 85.7552094,30.225 C85.7552094,30.3616071 85.890654,30.4292411 86.095162,30.4292411 C86.3901898,30.4292411 86.7308129,30.4513393 86.8897256,30.4975446 C87.5253765,30.6783482 87.7064163,30.8825893 87.7520116,31.5401786 C87.7741386,32.1522321 87.7741386,32.6959821 87.7741386,35.6203125 L87.7741386,39.0207589 C87.7741386,40.7886161 87.7741386,42.3073661 87.6836187,43.1236607 C87.6158964,43.6901786 87.5025789,44.053125 87.0942335,44.1435268 C86.9111822,44.1897321 86.6858882,44.2125 86.3901898,44.2125 C86.1407572,44.2125 86.0730349,44.325 86.0730349,44.4154018 C86.0730349,44.5513393 86.207809,44.6236607 86.4579121,44.6236607 C87.2524758,44.6236607 88.5693728,44.5560268 89.0226429,44.5560268 C89.5905715,44.5560268 90.9751908,44.6236607 92.2686198,44.6236607 C92.5187229,44.6236607 92.6776357,44.5513393 92.6776357,44.4154018 C92.6776357,44.325 92.5871157,44.2125 92.3591397,44.2125 C92.0654529,44.2125 91.6108418,44.1897321 91.3386115,44.1435268 C90.7478853,44.053125 90.6352383,43.6901786 90.566175,43.1464286 C90.4763256,42.3073661 90.4521869,40.8341518 90.4521869,39.065625 L90.4521869,37.5930804 C90.4521869,37.5020089 90.5212503,37.4792411 90.5903136,37.4792411 L98.1255932,37.4792411 C98.1698473,37.4792411 98.2382401,37.5241071 98.2382401,37.5930804 L98.2382401,39.065625 C98.2382401,40.8341518 98.2382401,42.3073661 98.1477202,43.1236607 C98.0793274,43.6901786 97.9660099,44.053125 97.5576645,44.1435268 C97.3759542,44.1897321 97.1493192,44.2125 96.8314937,44.2125 C96.6048587,44.2125 96.5136682,44.325 96.5136682,44.4154018 C96.5136682,44.5513393 96.672581,44.6236607 96.9448112,44.6236607 C97.7165773,44.6236607 99.1239942,44.5560268 99.5779348,44.5560268 C100.122395,44.5560268 101.438622,44.6236607 102.732721,44.6236607 C102.982824,44.6236607 103.141067,44.5513393 103.141067,44.4154018 C103.141067,44.325 103.02842,44.2125 102.823241,44.2125 C102.506086,44.2125 102.074943,44.1897321 101.801372,44.1435268 C101.18986,44.053125 101.075872,43.6901786 101.008149,43.1464286 C100.916288,42.3073661 100.916288,40.7886161 100.916288,39.0207589 L100.916288,35.6203125 C100.916288,32.6959821 100.916288,32.1522321 100.961884,31.5401786 C101.008149,30.8598214 101.166392,30.5879464 101.688725,30.4975446 C101.937487,30.4513393 102.119868,30.4292411 102.27811,30.4292411 C102.506086,30.4292411 102.642201,30.3616071 102.642201,30.225 C102.642201,30.0890625 102.506086,30.0441964 102.211058,30.0441964 C101.438622,30.0441964 100.122395,30.0890625 99.6456571,30.0890625 C99.1239942,30.0890625 97.7165773,30.0441964 96.6497834,30.0441964 C96.3547555,30.0441964 96.2186404,30.0890625 96.2186404,30.225 C96.2186404,30.3616071 96.3319579,30.4292411 96.5585929,30.4292411 C96.8314937,30.4292411 97.1721168,30.4513393 97.330359,30.4975446 C97.9660099,30.6783482 98.1477202,30.8825893 98.1933155,31.5401786 C98.2154425,32.1522321 98.2382401,32.8560268 98.2382401,35.7790179 L98.2382401,36.1875 C98.2382401,36.3013393 98.1698473,36.3234375 98.1255932,36.3234375 L90.5903136,36.3234375 L90.5903136,36.3234375 Z M78.1280689,44.8727679 C79.1948628,44.8727679 80.5110893,44.7595982 81.4645657,44.0758929 C82.9169074,43.0553571 83.4620384,41.8995536 83.4620384,40.471875 C83.4620384,38.7261161 82.6453476,37.2529018 80.0122241,35.8017857 L79.1948628,35.3484375 C77.4018981,34.3513393 77.0840726,33.6716518 77.0840726,32.8098214 C77.0840726,31.4946429 78.3775015,30.7466518 79.8077161,30.7466518 C81.1018156,30.7466518 81.736796,31.2917411 82.0324943,31.6526786 C82.4622963,32.1522321 82.5548277,32.7421875 82.5548277,32.9229911 C82.5548277,33.1493304 82.62255,33.2631696 82.7586652,33.2631696 C82.9169074,33.2631696 83.0080978,33.0589286 83.0080978,32.6511161 C83.0080978,31.1316964 83.0764906,30.5879464 83.0764906,30.3388393 C83.0764906,30.2029018 82.9859707,30.1345982 82.8042604,30.0890625 C82.281927,29.953125 81.2600578,29.7723214 79.9666288,29.7723214 C77.1980607,29.7723214 74.9276872,31.2917411 74.9276872,33.6482143 C74.9276872,35.3484375 75.7001238,36.6401786 78.0603466,38.0236607 L79.2176604,38.7033482 C80.9878275,39.7466518 81.1923355,40.5850446 81.1923355,41.4234375 C81.1923355,42.7834821 80.1483392,43.8716518 78.4230968,43.8716518 C77.175263,43.8716518 75.6759851,43.3955357 75.2455127,41.9678571 C75.1321952,41.6270089 75.0631318,41.2198661 75.0631318,40.9700893 C75.0631318,40.8341518 75.0410047,40.6526786 74.8592944,40.6526786 C74.7003817,40.6526786 74.6098618,40.8569196 74.6098618,41.1515625 C74.5863936,41.4689732 74.4958737,42.6703125 74.4958737,43.7129464 C74.4958737,44.1435268 74.5642666,44.2345982 74.8827625,44.3705357 C75.7450485,44.7595982 76.9714256,44.8727679 78.1280689,44.8727679 L78.1280689,44.8727679 Z" id="Fill-3" fill="#FFFFFF" sketch:type="MSShapeGroup" mask="url(#mask-2)"></path>
                <path d="M22.3637817,15.5598214 C10.6069218,21.1734375 3.31034661,31.8194196 3.7160099,41.5185268 C4.04188158,49.2944196 10.0859294,58.9359375 20.0793274,64.8716518 C7.85779864,65.2439732 0.588714669,50.3705357 0.888436146,43.1625 C-0.854239736,51.5464286 2.18924077,67.3660714 18.2997731,73.0808036 C23.6075923,74.9625 33.5292449,75.2544643 37.9593563,72.0669643 C45.6193522,66.5578125 42.5356406,58.9700893 36.2307613,53.8017857 C28.928822,47.8158482 22.5226945,43.8535714 18.840881,35.7294643 C16.3405199,30.2149554 15.440685,23.3370536 22.3637817,15.5598214" id="Fill-4" fill="#FFFFFF" sketch:type="MSShapeGroup" mask="url(#mask-2)"></path>
                <path d="M28.6304415,41.4890625 C18.2870332,30.9 20.4467712,23.7408482 27.0621003,14.5660714 C30.1431298,10.2930804 33.1839282,6.02477679 32.6729936,0.4546875 C48.4194347,17.2426339 33.6915102,22.7256696 41.425263,31.3178571 C42.5188777,26.578125 45.8593976,21.6254464 50.5215081,18.0595982 C49.2287497,31.396875 53.6333815,31.8154018 57.505622,40.0299107 C63.479936,52.7029018 55.213792,66.7654018 42.8769342,72.6207589 C48.1156901,67.4845982 48.6581391,60.4292411 42.4907159,53.4850446 C39.3533629,49.9513393 33.6620074,46.6386161 28.6304415,41.4890625" id="Fill-5" fill="#FFFFFF" sketch:type="MSShapeGroup" mask="url(#mask-2)"></path>
            </g>
        </g>
    </g>
</svg>