<?xml version="1.0" encoding="UTF-8" standalone="no"?>
<svg
   xmlns:sketch="http://www.bohemiancoding.com/sketch/ns"
   xmlns:dc="http://purl.org/dc/elements/1.1/"
   xmlns:cc="http://creativecommons.org/ns#"
   xmlns:rdf="http://www.w3.org/1999/02/22-rdf-syntax-ns#"
   xmlns:svg="http://www.w3.org/2000/svg"
   xmlns="http://www.w3.org/2000/svg"
   xmlns:sodipodi="http://sodipodi.sourceforge.net/DTD/sodipodi-0.dtd"
   xmlns:inkscape="http://www.inkscape.org/namespaces/inkscape"
   width="193.461"
   height="43.808998"
   viewBox="0 0 193.461 43.808998"
   version="1.1"
   id="svg2"
   inkscape:version="0.48.4 r9939"
   sodipodi:docname="scifabric.svg">
  <metadata
     id="metadata19">
    <rdf:RDF>
      <cc:Work
         rdf:about="">
        <dc:format>image/svg+xml</dc:format>
        <dc:type
           rdf:resource="http://purl.org/dc/dcmitype/StillImage" />
        <dc:title>Group 3</dc:title>
      </cc:Work>
    </rdf:RDF>
  </metadata>
  <sodipodi:namedview
     pagecolor="#ffffff"
     bordercolor="#666666"
     borderopacity="1"
     objecttolerance="10"
     gridtolerance="10"
     guidetolerance="10"
     inkscape:pageopacity="0"
     inkscape:pageshadow="2"
     inkscape:window-width="1855"
     inkscape:window-height="1056"
     id="namedview17"
     showgrid="false"
     inkscape:zoom="1.0992366"
     inkscape:cx="62.558595"
     inkscape:cy="15.867199"
     inkscape:window-x="1985"
     inkscape:window-y="24"
     inkscape:window-maximized="1"
     inkscape:current-layer="svg2"
     fit-margin-top="0"
     fit-margin-left="0"
     fit-margin-right="0"
     fit-margin-bottom="0" />
  <!-- Generator: Sketch 3.5.2 (25235) - http://www.bohemiancoding.com/sketch -->
  <title
     id="title4">Group 3</title>
  <desc
     id="desc6">Created with Sketch.</desc>
  <defs
     id="defs8" />
  <path
     inkscape:connector-curvature="0"
     style="fill:#ffffff;fill-rule:evenodd;stroke:none"
     sketch:type="MSShapeGroup"
     id="Fill-70"
     d="m 99.083,32.663 c 0,3.097 -1.838,4.645 -5.513,4.645 l -0.061,0 c -3.855,0 -5.782,-1.638 -5.782,-4.915 0.018,-2.657 2.337,-3.985 6.951,-3.985 1.218,0.02 2.687,0.151 4.405,0.39 l 0,3.865 z M 92.939,12.226 c -3.435,0 -6.562,0.569 -9.378,1.708 l 0,5.964 c 2.537,-1.039 5.523,-1.559 8.96,-1.559 4.334,0 6.502,1.929 6.502,5.784 -1.918,-0.279 -3.714,-0.42 -5.394,-0.42 -2.337,0 -4.363,0.265 -6.082,0.794 -1.719,0.529 -3.018,1.165 -3.897,1.903 -0.879,0.741 -1.573,1.599 -2.084,2.578 -0.507,0.978 -0.822,1.792 -0.941,2.442 -0.121,0.648 -0.182,1.284 -0.182,1.902 0,2.918 1.065,5.395 3.194,7.433 2.127,2.037 5.437,3.054 9.933,3.054 4.373,0 7.616,-1.012 9.723,-3.04 2.107,-2.027 3.162,-4.45 3.162,-7.267 l 0,-8.271 c 0,-4.214 -1.159,-7.435 -3.476,-9.664 -2.318,-2.226 -5.665,-3.341 -10.04,-3.341 l 0,0 z m 92.912,6.383 c 2.657,0 5.194,0.49 7.61,1.468 l 0,-6.143 c -2.897,-1.139 -5.842,-1.708 -8.838,-1.708 -4.656,0 -8.231,1.359 -10.728,4.076 -2.499,2.716 -3.747,6.632 -3.747,11.747 0,5.073 1.248,8.968 3.747,11.686 2.497,2.718 6.072,4.074 10.728,4.074 2.996,0 5.941,-0.568 8.838,-1.707 l 0,-6.142 c -2.537,1.018 -5.073,1.528 -7.61,1.528 -2.818,0 -4.911,-0.655 -6.279,-1.964 -1.369,-1.306 -2.052,-3.799 -2.052,-7.475 0,-3.717 0.683,-6.218 2.052,-7.506 1.368,-1.289 3.461,-1.934 6.279,-1.934 l 0,0 z m -57.794,16.49 c -0.94,1.593 -2.578,2.389 -4.914,2.389 -3.676,0 -5.514,-1.102 -5.514,-3.307 l 0,-15.69 c 1.378,-0.341 2.967,-0.512 4.764,-0.512 2.296,0 4.05,0.688 5.259,2.06 1.207,1.372 1.813,3.782 1.813,7.228 0,3.627 -0.469,6.239 -1.408,7.832 l 0,0 z m -5.394,-22.873 c -1.599,0 -3.276,0.161 -5.034,0.48 l 0,-11.776 -7.371,0 0,32.558 c 0,2.841 1.053,5.271 3.16,7.292 2.107,2.02 5.35,3.029 9.725,3.029 1.013,0 2.023,-0.078 3.027,-0.239 1.005,-0.161 2.187,-0.581 3.551,-1.26 1.363,-0.681 2.53,-1.562 3.506,-2.643 0.974,-1.079 1.819,-2.666 2.537,-4.758 0.715,-2.092 1.073,-4.509 1.073,-7.25 0,-4.984 -1.224,-8.803 -3.67,-11.455 -2.446,-2.652 -5.948,-3.978 -10.504,-3.978 l 0,0 z m 36.222,31.105 7.341,0 0,-30.625 -7.341,0 0,30.625 z m -77.718,-30.625 -7.042,0 c 0,-2.657 0.42,-4.444 1.259,-5.363 0.839,-0.919 2.218,-1.379 4.136,-1.379 0.359,0 0.91,0.04 1.647,0.12 l 0,-5.784 C 80.148,0.1 79.148,0 78.171,0 70.6,0 66.793,4.235 66.754,12.706 l -5.214,0 0,6.323 5.214,0 0,24.302 7.371,0 0,-24.302 7.042,0 0,-6.323 z m -64.341,13.23 c -1.428,-0.629 -2.861,-1.128 -4.301,-1.498 -1.437,-0.37 -2.656,-0.799 -3.654,-1.289 -1,-0.49 -1.498,-1.164 -1.498,-2.023 0,-1.718 1.757,-2.577 5.273,-2.577 2.637,0 4.995,0.49 7.073,1.468 l 0,-5.603 C 17.182,12.956 14.395,12.226 11.357,12.226 8.121,12.226 5.42,13.05 3.252,14.698 1.084,16.347 0,18.709 0,21.786 c 0,1.957 0.505,3.58 1.514,4.869 1.007,1.289 2.226,2.212 3.655,2.772 1.429,0.559 2.856,1.044 4.286,1.453 1.428,0.411 2.647,0.889 3.654,1.438 1.01,0.55 1.515,1.275 1.515,2.174 0,0.978 -0.319,1.712 -0.96,2.201 -0.639,0.491 -2.018,0.735 -4.135,0.735 -3.076,0 -5.963,-0.9 -8.66,-2.697 l 0,6.562 c 2.957,1.679 6.193,2.516 9.709,2.516 3.436,0 6.197,-0.847 8.285,-2.545 2.088,-1.699 3.132,-3.836 3.132,-6.413 0,-2.317 -0.505,-4.226 -1.515,-5.724 -1.007,-1.498 -2.226,-2.562 -3.654,-3.191 l 0,0 z m 33.959,17.395 7.342,0 0,-30.625 -7.342,0 0,30.625 z M 27.984,16.302 c -2.498,2.716 -3.745,6.632 -3.745,11.747 0,5.073 1.247,8.968 3.745,11.686 2.498,2.718 6.075,4.074 10.729,4.074 2.996,0 5.943,-0.568 8.84,-1.707 l 0,-6.142 c -2.537,1.018 -5.074,1.528 -7.612,1.528 -2.816,0 -4.91,-0.655 -6.277,-1.964 -1.369,-1.306 -2.053,-3.799 -2.053,-7.475 0,-3.717 0.684,-6.218 2.053,-7.506 1.367,-1.289 3.461,-1.934 6.277,-1.934 2.657,0 5.194,0.49 7.612,1.468 l 0,-6.143 c -2.897,-1.139 -5.844,-1.708 -8.84,-1.708 -4.654,0 -8.231,1.359 -10.729,4.076 l 0,0 z m 114.573,-1.716 c -0.88,0.327 -1.569,0.609 -2.067,0.847 l 0,27.898 7.371,0 0,-23.761 c 2.198,-0.64 4.834,-0.98 7.91,-1.021 l 0,-6.323 c -2.617,0.041 -5.253,0.362 -7.91,0.965 -2.657,0.604 -4.425,1.069 -5.304,1.395 l 0,0 z" />
</svg>
